<?xml version="1.0" encoding="utf-8"?>
<!-- Generator: Adobe Illustrator 22.0.1, SVG Export Plug-In . SVG Version: 6.00 Build 0)  -->
<svg version="1.1" id="Layer_1" xmlns="http://www.w3.org/2000/svg" xmlns:xlink="http://www.w3.org/1999/xlink" x="0px" y="0px"
	 viewBox="0 0 792 612" style="enable-background:new 0 0 792 612;" xml:space="preserve">
<style type="text/css">
	.st0{fill:#A7301D;stroke:#000000;stroke-miterlimit:10;}
	.st1{fill:#FFFFFF;stroke:#000000;stroke-miterlimit:10;}
	.st2{font-family:'DINAlternate-Bold';}
	.st3{font-size:30px;}
	.st4{fill:none;stroke:#000000;stroke-miterlimit:10;}
</style>
<rect id="machine" x="62.6" y="60" class="st0" width="305.2" height="450"/>
<rect x="73.3" y="150.3" class="st1" width="210.3" height="242.3"/>
<path class="st1" d="M273.6,464.3H83.3c-5.5,0-10-4.5-10-10v-47.1h210.3v47.1C283.6,459.8,279.1,464.3,273.6,464.3z"/>
<path class="st1" d="M347,69.8H83.3c-5.5,0-10,4.5-10,10v45c0,5.5,4.5,10,10,10H347c5.5,0,10-4.5,10-10v-45
	C357,74.3,352.5,69.8,347,69.8z"/>
<rect x="293.6" y="150.3" class="st1" width="63.4" height="74"/>
<rect x="293.6" y="234.4" class="st1" width="63.4" height="63.4"/>
<rect x="293.6" y="318.6" class="st1" width="63.4" height="74"/>
<text transform="matrix(1 0 0 1 89.5447 112.0815)" class="st2 st3">SODA</text>
<line class="st4" x1="81.9" y1="224.3" x2="275" y2="224.3"/>
<line class="st4" x1="81.9" y1="295.1" x2="275" y2="295.1"/>
<line class="st4" x1="81.9" y1="365.9" x2="275" y2="365.9"/>
<g>
	<path d="M118.5,195.3c-11.3,0-20.6,9.2-20.6,20.6c0,3,0.7,5.8,1.8,8.4c0.2,0,0.3,0.1,0.5,0.1c0.2,0,0.4-0.1,0.6-0.1
		c-1.2-2.6-1.9-5.4-1.9-8.4c0-10.8,8.8-19.6,19.6-19.6s19.6,8.8,19.6,19.6c0,3-0.7,5.9-1.9,8.4c0.4,0,0.7,0,1.1,0.1
		c1.2-2.6,1.9-5.5,1.9-8.5C139.1,204.5,129.9,195.3,118.5,195.3z"/>
</g>
<g>
	<path d="M240.4,195.3c-11.3,0-20.6,9.2-20.6,20.6c0,3,0.7,5.8,1.8,8.4c0.2,0,0.3,0.1,0.5,0.1c0.2,0,0.4-0.1,0.6-0.1
		c-1.2-2.6-1.9-5.4-1.9-8.4c0-10.8,8.8-19.6,19.6-19.6s19.6,8.8,19.6,19.6c0,3-0.7,5.9-1.9,8.4c0.4,0,0.7,0,1.1,0.1
		c1.2-2.6,1.9-5.5,1.9-8.5C261,204.5,251.8,195.3,240.4,195.3z"/>
</g>
<g>
	<path d="M179.5,195.3c-11.3,0-20.6,9.2-20.6,20.6c0,3,0.7,5.8,1.8,8.4c0.2,0,0.3,0.1,0.5,0.1c0.2,0,0.4-0.1,0.6-0.1
		c-1.2-2.6-1.9-5.4-1.9-8.4c0-10.8,8.8-19.6,19.6-19.6s19.6,8.8,19.6,19.6c0,3-0.7,5.9-1.9,8.4c0.4,0,0.7,0,1.1,0.1
		c1.2-2.6,1.9-5.5,1.9-8.5C200.1,204.5,190.8,195.3,179.5,195.3z"/>
</g>
<g>
	<path d="M118.5,266.1c-11.3,0-20.6,9.2-20.6,20.6c0,3,0.7,5.8,1.8,8.4c0.2,0,0.3,0.1,0.5,0.1c0.2,0,0.4-0.1,0.6-0.1
		c-1.2-2.6-1.9-5.4-1.9-8.4c0-10.8,8.8-19.6,19.6-19.6s19.6,8.8,19.6,19.6c0,3-0.7,5.9-1.9,8.4c0.4,0,0.7,0,1.1,0.1
		c1.2-2.6,1.9-5.5,1.9-8.5C139.1,275.4,129.9,266.1,118.5,266.1z"/>
</g>
<g>
	<path d="M240.4,266.1c-11.3,0-20.6,9.2-20.6,20.6c0,3,0.7,5.8,1.8,8.4c0.2,0,0.3,0.1,0.5,0.1c0.2,0,0.4-0.1,0.6-0.1
		c-1.2-2.6-1.9-5.4-1.9-8.4c0-10.8,8.8-19.6,19.6-19.6s19.6,8.8,19.6,19.6c0,3-0.7,5.9-1.9,8.4c0.4,0,0.7,0,1.1,0.1
		c1.2-2.6,1.9-5.5,1.9-8.5C261,275.4,251.8,266.1,240.4,266.1z"/>
</g>
<g>
	<path d="M179.5,266.1c-11.3,0-20.6,9.2-20.6,20.6c0,3,0.7,5.8,1.8,8.4c0.2,0,0.3,0.1,0.5,0.1c0.2,0,0.4-0.1,0.6-0.1
		c-1.2-2.6-1.9-5.4-1.9-8.4c0-10.8,8.8-19.6,19.6-19.6s19.6,8.8,19.6,19.6c0,3-0.7,5.9-1.9,8.4c0.4,0,0.7,0,1.1,0.1
		c1.2-2.6,1.9-5.5,1.9-8.5C200.1,275.4,190.8,266.1,179.5,266.1z"/>
</g>
<g>
	<path d="M118.5,336.7c-11.3,0-20.6,9.2-20.6,20.6c0,3,0.7,5.8,1.8,8.4c0.2,0,0.3,0.1,0.5,0.1c0.2,0,0.4-0.1,0.6-0.1
		c-1.2-2.6-1.9-5.4-1.9-8.4c0-10.8,8.8-19.6,19.6-19.6s19.6,8.8,19.6,19.6c0,3-0.7,5.9-1.9,8.4c0.4,0,0.7,0,1.1,0.1
		c1.2-2.6,1.9-5.5,1.9-8.5C139.1,345.9,129.9,336.7,118.5,336.7z"/>
</g>
<g>
	<path d="M240.4,336.7c-11.3,0-20.6,9.2-20.6,20.6c0,3,0.7,5.8,1.8,8.4c0.2,0,0.3,0.1,0.5,0.1c0.2,0,0.4-0.1,0.6-0.1
		c-1.2-2.6-1.9-5.4-1.9-8.4c0-10.8,8.8-19.6,19.6-19.6s19.6,8.8,19.6,19.6c0,3-0.7,5.9-1.9,8.4c0.4,0,0.7,0,1.1,0.1
		c1.2-2.6,1.9-5.5,1.9-8.5C261,345.9,251.8,336.7,240.4,336.7z"/>
</g>
<g>
	<path d="M179.5,336.7c-11.3,0-20.6,9.2-20.6,20.6c0,3,0.7,5.8,1.8,8.4c0.2,0,0.3,0.1,0.5,0.1c0.2,0,0.4-0.1,0.6-0.1
		c-1.2-2.6-1.9-5.4-1.9-8.4c0-10.8,8.8-19.6,19.6-19.6s19.6,8.8,19.6,19.6c0,3-0.7,5.9-1.9,8.4c0.4,0,0.7,0,1.1,0.1
		c1.2-2.6,1.9-5.5,1.9-8.5C200.1,345.9,190.8,336.7,179.5,336.7z"/>
</g>
</svg>
