<?xml version="1.0" encoding="utf-8"?>
<!-- Generator: Adobe Illustrator 22.0.1, SVG Export Plug-In . SVG Version: 6.00 Build 0)  -->
<svg version="1.1" xmlns="http://www.w3.org/2000/svg" xmlns:xlink="http://www.w3.org/1999/xlink" x="0px" y="0px"
	 viewBox="0 0 317.9 465.4" style="enable-background:new 0 0 317.9 465.4;" xml:space="preserve">
<style type="text/css">
	.st0{display:none;}
	.st1{display:inline;fill:#A7301D;stroke:#000000;stroke-miterlimit:10;}
	.st2{display:inline;fill:#FFFFFF;stroke:#000000;stroke-miterlimit:10;}
	.st3{display:inline;}
	.st4{font-family:'DINAlternate-Bold';}
	.st5{font-size:30px;}
	.st6{display:inline;fill:none;stroke:#000000;stroke-miterlimit:10;}
	.st7{fill:#A7301D;}
	.st8{fill:#808080;}
	.st9{fill:#FFFFFF;}
</style>
<g id="Soda_machine" class="st0">
	<rect id="machine" x="6.5" y="8.3" class="st1" width="305.2" height="450"/>
	<rect x="17.3" y="98.6" class="st2" width="210.3" height="242.3"/>
	<path class="st2" d="M217.6,412.6H27.3c-5.5,0-10-4.5-10-10v-47.1h210.3v47.1C227.6,408.1,223.1,412.6,217.6,412.6z"/>
	<path class="st2" d="M291,18.1H27.3c-5.5,0-10,4.5-10,10v45c0,5.5,4.5,10,10,10H291c5.5,0,10-4.5,10-10v-45
		C301,22.6,296.5,18.1,291,18.1z"/>
	<rect x="237.6" y="98.6" class="st2" width="63.4" height="74"/>
	<rect x="237.6" y="182.7" class="st2" width="63.4" height="63.4"/>
	<rect x="237.6" y="266.9" class="st2" width="63.4" height="74"/>
	<text transform="matrix(1 0 0 1 33.5102 60.3573)" class="st3 st4 st5">SODA</text>
	<line class="st6" x1="25.9" y1="172.6" x2="218.9" y2="172.6"/>
	<line class="st6" x1="25.9" y1="243.4" x2="218.9" y2="243.4"/>
	<line class="st6" x1="25.9" y1="314.2" x2="218.9" y2="314.2"/>
	<g class="st3">
		<path d="M62.5,143.6c-11.3,0-20.6,9.2-20.6,20.6c0,3,0.7,5.8,1.8,8.4c0.2,0,0.3,0.1,0.5,0.1c0.2,0,0.4-0.1,0.6-0.1
			c-1.2-2.6-1.9-5.4-1.9-8.4c0-10.8,8.8-19.6,19.6-19.6s19.6,8.8,19.6,19.6c0,3-0.7,5.9-1.9,8.4c0.4,0,0.7,0,1.1,0.1
			c1.2-2.6,1.9-5.5,1.9-8.5C83.1,152.8,73.8,143.6,62.5,143.6z"/>
	</g>
	<g class="st3">
		<path d="M184.4,143.6c-11.3,0-20.6,9.2-20.6,20.6c0,3,0.7,5.8,1.8,8.4c0.2,0,0.3,0.1,0.5,0.1c0.2,0,0.4-0.1,0.6-0.1
			c-1.2-2.6-1.9-5.4-1.9-8.4c0-10.8,8.8-19.6,19.6-19.6s19.6,8.8,19.6,19.6c0,3-0.7,5.9-1.9,8.4c0.4,0,0.7,0,1.1,0.1
			c1.2-2.6,1.9-5.5,1.9-8.5C205,152.8,195.7,143.6,184.4,143.6z"/>
	</g>
	<g class="st3">
		<path d="M123.4,143.6c-11.3,0-20.6,9.2-20.6,20.6c0,3,0.7,5.8,1.8,8.4c0.2,0,0.3,0.1,0.5,0.1c0.2,0,0.4-0.1,0.6-0.1
			c-1.2-2.6-1.9-5.4-1.9-8.4c0-10.8,8.8-19.6,19.6-19.6s19.6,8.8,19.6,19.6c0,3-0.7,5.9-1.9,8.4c0.4,0,0.7,0,1.1,0.1
			c1.2-2.6,1.9-5.5,1.9-8.5C144,152.8,134.8,143.6,123.4,143.6z"/>
	</g>
	<g class="st3">
		<path d="M62.5,214.4c-11.3,0-20.6,9.2-20.6,20.6c0,3,0.7,5.8,1.8,8.4c0.2,0,0.3,0.1,0.5,0.1c0.2,0,0.4-0.1,0.6-0.1
			c-1.2-2.6-1.9-5.4-1.9-8.4c0-10.8,8.8-19.6,19.6-19.6s19.6,8.8,19.6,19.6c0,3-0.7,5.9-1.9,8.4c0.4,0,0.7,0,1.1,0.1
			c1.2-2.6,1.9-5.5,1.9-8.5C83.1,223.7,73.8,214.4,62.5,214.4z"/>
	</g>
	<g class="st3">
		<path d="M184.4,214.4c-11.3,0-20.6,9.2-20.6,20.6c0,3,0.7,5.8,1.8,8.4c0.2,0,0.3,0.1,0.5,0.1c0.2,0,0.4-0.1,0.6-0.1
			c-1.2-2.6-1.9-5.4-1.9-8.4c0-10.8,8.8-19.6,19.6-19.6S204,224.2,204,235c0,3-0.7,5.9-1.9,8.4c0.4,0,0.7,0,1.1,0.1
			c1.2-2.6,1.9-5.5,1.9-8.5C205,223.7,195.7,214.4,184.4,214.4z"/>
	</g>
	<g class="st3">
		<path d="M123.4,214.4c-11.3,0-20.6,9.2-20.6,20.6c0,3,0.7,5.8,1.8,8.4c0.2,0,0.3,0.1,0.5,0.1c0.2,0,0.4-0.1,0.6-0.1
			c-1.2-2.6-1.9-5.4-1.9-8.4c0-10.8,8.8-19.6,19.6-19.6S143,224.2,143,235c0,3-0.7,5.9-1.9,8.4c0.4,0,0.7,0,1.1,0.1
			c1.2-2.6,1.9-5.5,1.9-8.5C144,223.7,134.8,214.4,123.4,214.4z"/>
	</g>
	<g class="st3">
		<path d="M62.5,285c-11.3,0-20.6,9.2-20.6,20.6c0,3,0.7,5.8,1.8,8.4c0.2,0,0.3,0.1,0.5,0.1c0.2,0,0.4-0.1,0.6-0.1
			c-1.2-2.6-1.9-5.4-1.9-8.4c0-10.8,8.8-19.6,19.6-19.6s19.6,8.8,19.6,19.6c0,3-0.7,5.9-1.9,8.4c0.4,0,0.7,0,1.1,0.1
			c1.2-2.6,1.9-5.5,1.9-8.5C83.1,294.2,73.8,285,62.5,285z"/>
	</g>
	<g class="st3">
		<path d="M184.4,285c-11.3,0-20.6,9.2-20.6,20.6c0,3,0.7,5.8,1.8,8.4c0.2,0,0.3,0.1,0.5,0.1c0.2,0,0.4-0.1,0.6-0.1
			c-1.2-2.6-1.9-5.4-1.9-8.4c0-10.8,8.8-19.6,19.6-19.6s19.6,8.8,19.6,19.6c0,3-0.7,5.9-1.9,8.4c0.4,0,0.7,0,1.1,0.1
			c1.2-2.6,1.9-5.5,1.9-8.5C205,294.2,195.7,285,184.4,285z"/>
	</g>
	<g class="st3">
		<path d="M123.4,285c-11.3,0-20.6,9.2-20.6,20.6c0,3,0.7,5.8,1.8,8.4c0.2,0,0.3,0.1,0.5,0.1c0.2,0,0.4-0.1,0.6-0.1
			c-1.2-2.6-1.9-5.4-1.9-8.4c0-10.8,8.8-19.6,19.6-19.6s19.6,8.8,19.6,19.6c0,3-0.7,5.9-1.9,8.4c0.4,0,0.7,0,1.1,0.1
			c1.2-2.6,1.9-5.5,1.9-8.5C144,294.2,134.8,285,123.4,285z"/>
	</g>
</g>
<g id="Soda">
	<path class="st7" d="M229,357.3H88.9c-6.6,0-12-5.4-12-12V114.9c0-6.6,5.4-12,12-12H229c6.6,0,12,5.4,12,12v230.4
		C241,351.9,235.6,357.3,229,357.3z"/>
	<path class="st8" d="M218.1,371.8H99.8c-5.5,0-10-4.5-10-10v-4.5h138.3v4.5C228.1,367.3,223.6,371.8,218.1,371.8z"/>
	<path class="st8" d="M226.1,103.5H91.8c-4.1,0-7.5-3.4-7.5-7.5v0c0-4.1,3.4-7.5,7.5-7.5h134.3c4.1,0,7.5,3.4,7.5,7.5v0
		C233.5,100.1,230.2,103.5,226.1,103.5z"/>
	<path class="st8" d="M163.2,94.6h-8.5c-6.6,0-12-5.4-12-12V52.1c0-6.6,5.4-12,12-12h8.5c6.6,0,12,5.4,12,12v30.5
		C175.2,89.2,169.8,94.6,163.2,94.6z"/>
	<path class="st9" d="M158.9,67.3L158.9,67.3c-6,0-10.9-4.9-10.9-10.9v0c0-6,4.9-10.9,10.9-10.9h0c6,0,10.9,4.9,10.9,10.9v0
		C169.8,62.4,164.9,67.3,158.9,67.3z"/>
</g>
</svg>
